<?xml version="1.0" encoding="utf-8"?>
<!-- Generator: Adobe Illustrator 15.0.0, SVG Export Plug-In . SVG Version: 6.00 Build 0)  -->
<!DOCTYPE svg PUBLIC "-//W3C//DTD SVG 1.1//EN" "http://www.w3.org/Graphics/SVG/1.1/DTD/svg11.dtd">
<svg version="1.1" class="artisan-logo" xmlns="http://www.w3.org/2000/svg" xmlns:xlink="http://www.w3.org/1999/xlink" x="0px" y="0px"
	 width="130px" height="54px" viewBox="0 0 130 54" enable-background="new 0 0 130 54" xml:space="preserve">
	<g>
		<path class="stroke" d="M126.333,54H3.667C1.645,54,0,52.355,0,50.333V3.667C0,1.645,1.645,0,3.667,0h122.666
			C128.355,0,130,1.645,130,3.667v46.666C130,52.355,128.355,54,126.333,54z M3.667,2C2.748,2,2,2.748,2,3.667v46.666
			C2,51.252,2.748,52,3.667,52h122.666c0.919,0,1.667-0.748,1.667-1.667V3.667C128,2.748,127.252,2,126.333,2H3.667z"/>
		<path class="stroke" d="M74.21,14.904c0-1.337,0.49-2.485,1.471-3.445c0.976-0.96,2.148-1.439,3.519-1.439
			c1.354,0,2.514,0.484,3.481,1.452c0.972,0.968,1.458,2.13,1.458,3.488c0,1.366-0.488,2.524-1.464,3.476
			c-0.98,0.956-2.164,1.433-3.55,1.433c-1.226,0-2.327-0.424-3.303-1.273C74.747,17.656,74.21,16.425,74.21,14.904z M75.655,14.919
			c0,1.049,0.354,1.911,1.059,2.587c0.701,0.676,1.511,1.014,2.43,1.014c0.996,0,1.837-0.344,2.522-1.033
			c0.685-0.696,1.027-1.545,1.027-2.544c0-1.012-0.339-1.86-1.016-2.544c-0.672-0.688-1.505-1.033-2.497-1.033
			c-0.988,0-1.823,0.344-2.504,1.033C75.996,13.08,75.655,13.919,75.655,14.919z"/>
		<path class="stroke" d="M90.684,11.545h-3.31v2.282h3.193v1.347h-3.193v4.521h-1.433v-9.498h4.742V11.545z"/>
		<path class="stroke" d="M97.666,10.198v9.498h-1.434v-9.498H97.666z"/>
		<path class="stroke" d="M111.415,17.389h-4.066l-1.058,2.307h-1.545l4.7-10.095l4.533,10.095h-1.568L111.415,17.389z
			 M110.83,16.042l-1.408-3.229l-1.477,3.229H110.83z"/>
		<path class="stroke" d="M102.568,11.545v8.151h-1.433v-8.151h-2.185v-1.347h5.795v1.347H102.568z"/>
		<path class="stroke" d="M116.274,10.198v8.151h2.793v1.347h-4.226v-9.498H116.274z"/>
		<path class="stroke" d="M121.54,15.593l-3.101-5.395h1.648l2.172,3.796l2.178-3.796h1.648l-3.112,5.395v4.103h-1.434V15.593z"/>
		<g>
			<path class="stroke" d="M35.829,47.536c-0.432-1.852-1.358-2.889-1.496-5.237c-0.202-3.451-0.977-10.107-1.142-11.319
				c3.373-2.993,4.29-5.831,6.388-8.664c-0.225,0.734-0.543,1.458-0.677,2.192c-0.268,1.46,1.223,2.65,2.396,2.603
				c0.622-0.025,1.692-0.22,2.231-0.361c0.657-0.171,0.659-0.162,1.69-0.527c1.965,0.777-1.144,4.576-2.26,7.222
				c-0.309,0.73-0.835,2.204-1.386,3.698c-0.594,1.613-0.737,4.366-0.737,4.366c-0.225,2.155,1.35,3.044,3.357,2.669
				c2.979-0.557,5.384-2.919,7.553-4.887c1.399-1.27,2.728-2.614,4.013-4c-0.089,1.25-0.137,2.503-0.16,3.756
				c-0.022,1.197-0.187,2.679,0.4,3.779c0.858,1.608,3.901-0.029,4.871-0.731c0.734-0.532,1.433-1.147,2.102-1.81
				c-0.156,0.569-0.265,1.152-0.296,1.758c-0.162,3.166,3.856,2.637,5.782,2.036c2.777-0.867,5.041-3.08,6.917-5.207
				c0.226-0.255,0.451-0.515,0.676-0.778c0.146,1.009,0.39,2.02,0.591,3.005c0.216,1.06,0.223,2.321-0.553,3.168
				c-0.684,0.746-1.839,1.058-2.734,1.459c-0.185,0.083-1.091,0.644-0.389,0.73c4.255,0.526,8.658-1.137,12.137-3.499
				c0.199-0.136,0.398-0.275,0.596-0.418c-0.646,1.101-1.15,2.383-0.195,2.915c1.02,0.567,2.595,0.112,3.567-0.331
				c1.079-0.492,1.866-1.28,2.571-2.218c0.339-0.451,0.66-0.933,0.962-1.434c-0.132,1.28-0.186,2.544,0.893,3.275
				c1.41,0.956,3.501,0.338,4.911-0.245c1.524-0.63,2.681-1.926,3.677-3.192c0.867-1.104,1.586-2.304,2.519-3.354
				c0.277,0.82,0.108,1.844-0.105,2.628c-0.897,3.289-4.328,5.875-4.02,9.49c0.058,0.668,2.625-0.292,2.893-0.544
				c2.457-2.313,4.043-5.312,5.829-8.134c0.745-1.177,1.431-2.388,2.181-3.562c0.253-0.396,0.559-0.895,0.907-1.382
				c-0.029,2.839-0.413,5.669-0.254,8.511c0.052,0.909,0.28,1.897,1.105,2.404c0.846,0.52,2.128,0.193,3.006-0.018
				c2.243-0.539,4.163-2.065,5.772-3.648c1.722-1.692,3.218-3.705,4.061-5.98c0.785-2.12,0.69-4.399-0.671-6.252
				c-1.53-2.082-4.213-3.091-6.604-3.774c-2.719-0.777-5.57-1.032-8.376-1.271c-3.356-0.285-6.695-0.677-10.038-1.088
				c-9.158-1.127-18.313-2.159-27.487-3.143c-1.974-0.212-3.956-0.438-5.931-0.722c0.014-0.025,0.029-0.049,0.044-0.074
				c0.749-1.3,1.751-3.259,1.009-4.76c-0.94-1.901-3-1.848-4.735-1.249c-2.038,0.704-3.282,2.515-4.144,4.539
				c-4.296-1.16-14.451-9.368-18.412-11.348c-0.545-0.272-1.427,0.019-1.951,0.203c-0.084,0.03-1.388,0.577-0.922,0.81
				c3.146,1.573,12.437,9.276,15.742,10.494c1.618,0.596,3.272,1.056,4.946,1.433c-0.337,1.013-0.606,2.022-0.857,2.923
				c-0.699,2.511-1.187,5.078-1.513,7.664c-2.301,2.713-4.722,5.325-7.358,7.716c-0.75,0.681-1.526,1.332-2.317,1.965
				c-0.379,0.303-0.388,0.291-0.768,0.591c-0.208,0.166-0.975,0.531-1.408,0.25c-0.836-0.541-0.324-2.243-0.116-3.021
				c0.718-2.676,0.608-2.652,1.445-5.274c1.146-3.591,3.777-7.777,4.41-12.852c0.068-0.551-1.718-0.017-2.036,0.104
				c-1.062,0.403-1.931,1.003-2.791,1.735c-0.423,0.36-0.837,0.731-1.263,1.088c-0.213,0.179-0.435,0.347-0.657,0.514
				c-0.135,0.095-0.274,0.184-0.417,0.268c-1.106-0.146-0.896-1.493-0.646-2.292c0.302-0.969,0.77-1.934,0.699-2.972
				c-0.048-0.699-2.625,0.349-2.893,0.544c-3.882,2.833-3.153,6.624-6.906,9.53c-0.413-2.949-1.208-8.581-1.629-11.529
				c-0.585-4.097-6.424-8.263-8.572-11.878c-0.08-0.135-0.229-0.207-0.416-0.236L21.954,6.38c-0.756,0.098-1.722,0.53-1.992,0.766
				c-0.803,0.701-1.091,1.661-1.398,2.648c-0.465,1.494-0.927,2.99-1.429,4.474c-1.062,3.138-2.369,6.184-3.736,9.199
				C10.614,29.604,7.44,35.554,4.28,41.502c-0.244,0.461,1.083,0.264,1.203,0.24c0.497-0.092,1.521-0.288,1.792-0.799
				c3.026-5.698,6.05-11.401,8.761-17.259c1.391-3.004,2.697-6.049,3.812-9.167c0.494-1.385,0.937-2.787,1.349-4.198
				c0.99,2.628,6.681,5.438,7.083,8.229c0.479,3.318,1.329,9.929,1.787,13.25c-6.344,4.534-4.188-1.653-6.996-0.762
				c-0.175,0.056-2.113,0.941-1.724,1.273c0.344,0.293,1.446,0.912,2.278,1.746c0.68,0.682,2.782,1.34,6.567-1.314
				c0.109,0.814,0.699,5.892,1.013,9.266c0.147,1.579,0.432,2.072,1.896,4.679C34.764,48.556,35.829,47.536,35.829,47.536z
				 M63.914,16.402c0.357,0.229,0.635,0.579,0.884,0.913c0.48,0.645,0.358,1.569,0.167,2.287c-0.136,0.506-0.325,1-0.551,1.481
				c-0.941-0.162-1.879-0.342-2.812-0.542C62.137,19.109,62.833,17.531,63.914,16.402z M61.08,22.049
				c0.806,0.146,1.615,0.28,2.425,0.408c0.048,0.007,0.097,0.014,0.146,0.022c-0.528,0.852-1.13,1.662-1.705,2.428
				c-0.743,0.991-1.532,1.952-2.323,2.91C59.987,25.857,60.467,23.926,61.08,22.049z M89.529,42.11
				c-0.423,0.733-0.896,1.455-1.48,2.072c-0.045-0.087-0.055-0.189-0.052-0.323c0.014-0.702,0.564-1.499,0.895-2.086
				c0.534-0.95,1.135-1.863,1.724-2.779c0.299-0.464,0.647-0.952,0.988-1.46C91.127,39.128,90.357,40.674,89.529,42.11z
				 M118.337,44.766c-0.679,0.614-1.402,1.19-2.216,1.611c-0.056-0.021-0.199-0.067-0.396-0.226
				c-0.449-0.364-0.546-1.138-0.619-1.662c-0.487-3.468,0.377-7.07,0.192-10.563c-0.026-0.496-1.852,0.04-2.036,0.104
				c-2.698,0.932-4.328,3.328-5.701,5.716c0.023-0.085,0.046-0.171,0.065-0.258c0.304-1.325,0.307-3.292-1.391-3.415
				c-1.724-0.125-3.32,1.003-4.419,2.197c-0.966,1.05-1.713,2.25-2.565,3.388c-0.499,0.666-1.043,1.289-1.656,1.853
				c-0.187,0.172-0.389,0.339-0.604,0.481c-0.222-0.047-0.422-0.153-0.621-0.257c-1.177-0.614-0.788-2.668-0.713-3.71
				c0.088-1.223,0.134-2.659-1.109-3.309c-0.479-0.251-2.166,0.001-2.748,0.522c0.594-0.91,1.128-1.876,1.276-2.868
				c0.048-0.314-1.14-0.13-1.227-0.112c-1.617,0.312-2.792,1.028-3.74,2.365c-0.9,1.27-1.471,2.707-2.526,3.872
				c-2.176,2.399-5.534,4.747-8.925,4.874c1.467-0.672,2.904-1.557,3.101-3.247c0.176-1.518-0.353-3.011-0.621-4.49
				c-0.267-1.473-0.303-2.946,0.277-4.306c0.105-0.2,0.208-0.402,0.305-0.605c0.222-0.471-1.065-0.267-1.203-0.241
				c-0.519,0.097-1.493,0.289-1.792,0.8c-0.117,0.202-0.219,0.406-0.308,0.611c-0.81,1.521-1.888,2.929-2.955,4.262
				c-1.524,1.903-3.288,3.818-5.421,5.045c-0.102,0.059-0.498,0.198-0.546,0.232c-0.154-0.02-0.565-0.146-0.736-0.226
				c-1.049-0.485-1.117-1.606-0.979-2.621c0.353-2.576,2.052-4.759,2.828-7.196c0.2-0.629-2.642,0.036-2.994,0.56
				c-1.82,2.697-3.978,5.13-6.309,7.395c-0.138,0.133-0.279,0.261-0.421,0.388c-0.465-0.992-0.256-2.514-0.242-3.497
				c0.029-2.207,0.158-4.446,0.416-6.676c1.495-1.773,2.928-3.598,4.419-5.374c0.902-1.075,1.768-2.188,2.547-3.357
				c6.241,0.852,12.541,1.281,18.794,2.032c7.076,0.85,14.149,1.971,21.252,2.563c5.203,0.434,11.986,0.48,15.894,4.507
				C125.867,35.95,121.493,41.908,118.337,44.766z"/>
			<path class="stroke" d="M72.189,28.074c-0.652,0.028-1.578,0.238-2.025,0.765c-0.726,0.853-1.709,1.274-2.763,1.585
				c-0.317,0.093-1.512,0.442-1.367,0.983c0.143,0.532,1.359,0.263,1.676,0.169c1.9-0.559,3.917-1.309,5.237-2.859
				C73.402,28.182,72.556,28.059,72.189,28.074z"/>
			<path class="stroke" d="M22.277,7.549c-1.444,0.754-2.998,1.217-4.556,1.674c-1.385,0.407-2.945,0.789-4.106,1.692
				c-2.021,1.573-3.289,4.506-1.33,6.623c0.667,0.721-1.377,1.55-1.977,0.902c-2.217-2.395-0.988-5.915,1.273-7.833
				c2.809-2.383,6.611-2.509,9.787-4.167C22.396,5.902,23.583,6.867,22.277,7.549z M34.464,18.135
				c-0.407,3.724-3.718,5.588-6.974,6.629c-1.646,0.526-3.355,0.898-5.066,1.137c-1.466,0.205-2.95,0.203-4.413,0.451
				c-1.439,0.244-2.833,0.674-4.301,0.715c-0.639,0.018-1.586,0.468-1.69,1.178c-0.113,0.77,0.837,0.923,1.382,0.907
				c1.596-0.045,3.104-0.513,4.667-0.777c1.541-0.261,3.117-0.23,4.662-0.479c2.047-0.331,4.075-0.771,6.039-1.446
				c4.017-1.38,8.261-3.967,8.767-8.585C37.698,16.382,34.604,16.853,34.464,18.135z"/>
		</g>
	</g>
</svg>
